<svg width="18" height="17" viewBox="0 0 18 17" fill="none" xmlns="http://www.w3.org/2000/svg">
<path fill-rule="evenodd" clip-rule="evenodd" d="M2.90238 2.40241C-0.0786247 5.38341 -0.0786247 10.2166 2.90238 13.1976C5.88338 16.1786 10.7165 16.1786 13.6975 13.1976C16.6785 10.2166 16.6785 5.38341 13.6975 2.40241C10.7165 -0.578594 5.88338 -0.578594 2.90238 2.40241ZM4.08089 3.58092C6.41102 1.25079 10.1889 1.25079 12.519 3.58092C14.8492 5.91105 14.8492 9.68893 12.519 12.0191C10.1889 14.3492 6.41102 14.3492 4.08089 12.0191C1.75076 9.68893 1.75076 5.91105 4.08089 3.58092Z" fill="#92929D"/>
<path d="M17.4119 15.4021L13.9707 11.9608C13.185 11.1752 12.0065 12.3537 12.7922 13.1393L16.2334 16.5806C17.0191 17.3662 18.1976 16.1877 17.4119 15.4021Z" fill="#92929D"/>
</svg>
